<?xml version="1.0" encoding="UTF-8"?>
<svg width="19px" height="14px" viewBox="0 0 19 14" version="1.1" xmlns="http://www.w3.org/2000/svg" xmlns:xlink="http://www.w3.org/1999/xlink">
    <!-- Generator: Sketch 55.2 (78181) - https://sketchapp.com -->
    <title>形状</title>
    <desc>Created with Sketch.</desc>
    <g id="页面1" stroke="none" stroke-width="1" fill="none" fill-rule="evenodd">
        <g id="样式02--编辑拓扑-标注" transform="translate(-437.000000, -302.000000)" fill="#979BA5" fill-rule="nonzero">
            <g id="左侧栏目" transform="translate(259.000000, 114.000000)">
                <path d="M181.9375,198.861328 L182.767578,198.03125 C182.550781,197.861328 182.339844,197.683594 182.132812,197.501953 C181.15625,196.632812 180.423828,195.757812 180.064453,195.292969 C180.425781,194.828125 181.154297,193.953125 182.132812,193.083984 C183.400391,191.958984 185.359375,190.619141 187.498047,190.619141 C188.269531,190.619141 189.015625,190.792969 189.714844,191.068359 L190.605469,190.175781 C189.554688,189.693359 188.509766,189.453125 187.496094,189.453125 C186.376953,189.453125 185.21875,189.75 184.056641,190.337891 C183.146484,190.794922 182.232422,191.431641 181.335938,192.228516 C179.830078,193.572266 178.898438,194.902344 178.857422,194.957031 C178.71875,195.158203 178.71875,195.425781 178.857422,195.625 C178.896484,195.679688 179.826172,197.011719 181.339844,198.355469 C181.535156,198.527344 181.734375,198.697266 181.9375,198.861328 L181.9375,198.861328 Z M193.65625,192.226562 C193.300781,191.910156 192.929688,191.609375 192.546875,191.328125 L194.443359,189.429688 C194.685547,189.185547 194.685547,188.792969 194.443359,188.548828 L194.496094,188.601562 C194.378906,188.484375 194.222656,188.419922 194.056641,188.419922 C193.892578,188.419922 193.734375,188.484375 193.619141,188.601562 L181.673828,200.570312 C181.431641,200.814453 181.431641,201.207031 181.673828,201.451172 L181.621094,201.398438 C181.738281,201.515625 181.896484,201.580078 182.060547,201.580078 C182.224609,201.580078 182.382812,201.511719 182.5,201.396484 L183.789062,200.105469 C183.880859,200.154297 183.970703,200.203125 184.0625,200.248047 C185.224609,200.833984 186.382812,201.132812 187.501953,201.132812 C188.621094,201.132812 189.779297,200.835938 190.941406,200.248047 C191.851562,199.791016 192.765625,199.154297 193.660156,198.357422 C195.169922,197.011719 196.101562,195.681641 196.142578,195.625 C196.28125,195.423828 196.28125,195.15625 196.142578,194.957031 C196.097656,194.902344 195.166016,193.572266 193.65625,192.226562 Z M190.121094,195.291016 C190.121094,196.740234 188.943359,197.919922 187.498047,197.919922 C187.056641,197.919922 186.636719,197.808594 186.273438,197.615234 L189.818359,194.0625 C190.017578,194.441406 190.121094,194.861328 190.121094,195.291016 L190.121094,195.291016 Z M192.863281,197.498047 C191.595703,198.623047 189.636719,199.962891 187.498047,199.962891 C186.492188,199.962891 185.527344,199.666016 184.652344,199.234375 L185.421875,198.464844 C186.039062,198.871094 186.759766,199.087891 187.498047,199.087891 C189.587891,199.087891 191.287109,197.384766 191.287109,195.291016 C191.287109,194.523438 191.058594,193.810547 190.666016,193.210938 L191.708984,192.166016 C192.109375,192.449219 192.494141,192.753906 192.863281,193.082031 C193.839844,193.949219 194.572266,194.826172 194.931641,195.291016 C194.572266,195.753906 193.839844,196.632812 192.863281,197.498047 L192.863281,197.498047 Z M187.498047,192.664062 C187.691406,192.664062 187.880859,192.685547 188.0625,192.724609 L188.986328,191.800781 C188.515625,191.597656 188.011719,191.496094 187.5,191.496094 C185.410156,191.496094 183.710938,193.199219 183.710938,195.292969 C183.710938,195.822266 183.820312,196.326172 184.015625,196.78125 L184.939453,195.857422 C184.898438,195.671875 184.878906,195.482422 184.878906,195.292969 C184.875,193.841797 186.050781,192.664062 187.498047,192.664062 L187.498047,192.664062 Z" id="形状"></path>
            </g>
        </g>
    </g>
</svg>